<svg width="64" height="56" viewBox="0 0 64 56" fill="none" xmlns="http://www.w3.org/2000/svg">
<g clip-path="url(#clip0_23712_2213)">
<path d="M53.657 11.738C55.4985 11.9168 59.3504 11.3245 60.0259 7.52614C60.7009 3.72776 62.5065 2.67605 63.3254 2.625" stroke="#3BB515" stroke-width="0.5" stroke-linecap="round"/>
<path d="M37.3038 45.607C47.4723 45.607 55.7155 37.3799 55.7155 27.2312C55.7155 17.0826 47.4723 8.85547 37.3038 8.85547C27.1353 8.85547 18.8921 17.0826 18.8921 27.2312C18.8921 37.3799 27.1353 45.607 37.3038 45.607Z" fill="#3BB515"/>
<g filter="url(#filter0_d_23712_2213)">
<path d="M37.304 42.8612C45.9529 42.8612 52.9643 35.8636 52.9643 27.2316C52.9643 18.5996 45.9529 11.6019 37.304 11.6019C28.6551 11.6019 21.6438 18.5996 21.6438 27.2316C21.6438 35.8636 28.6551 42.8612 37.304 42.8612Z" stroke="white" stroke-opacity="0.7" stroke-width="0.5"/>
</g>
<path d="M45.4861 23.6138C45.4861 24.1473 45.2893 24.6625 44.9316 25.0304L36.6155 33.6039C36.2399 33.9718 35.7392 34.1927 35.2205 34.1927C34.7019 34.1927 34.2011 33.9718 33.8435 33.6039L29.6765 29.3172C29.3188 28.9492 29.1221 28.4341 29.1221 27.9005C29.1221 27.367 29.3366 26.8703 29.6943 26.4839C30.0699 26.1159 30.5528 25.9135 31.0714 25.8952C31.5901 25.8952 32.073 26.0975 32.4485 26.4655L35.2205 29.3172L42.1596 22.1788C42.5351 21.8108 43.018 21.6084 43.5366 21.6084C44.0553 21.6268 44.5384 21.8292 44.9136 22.2156C45.2713 22.5835 45.4861 23.0802 45.4861 23.6138Z" fill="white"/>
<path d="M51.0896 45.6072C52.8084 46.1029 56.1316 47.9859 55.6731 51.5537" stroke="#3BB515" stroke-width="0.5" stroke-linecap="round" stroke-linejoin="round"/>
<path d="M0.674561 40.5719C3.31218 41.5634 8.99848 42.2745 10.6428 37.1873M10.6428 37.1873C10.8825 35.7856 10.6428 33.013 7.76538 33.136C7.21726 34.4865 7.02539 37.1873 10.6428 37.1873ZM10.6428 37.1873C11.8417 37.4095 14.63 37.1976 16.1921 34.572" stroke="#3BB515" stroke-width="0.5" stroke-linecap="round" stroke-linejoin="round"/>
<path d="M42.5314 55.9247C43.5061 55.9247 44.2962 55.1361 44.2962 54.1633C44.2962 53.1906 43.5061 52.402 42.5314 52.402C41.5567 52.402 40.7666 53.1906 40.7666 54.1633C40.7666 55.1361 41.5567 55.9247 42.5314 55.9247Z" fill="#3BB515"/>
<path d="M59.2153 27.8137C60.0689 27.8137 60.7609 27.1231 60.7609 26.2711C60.7609 25.4192 60.0689 24.7285 59.2153 24.7285C58.3617 24.7285 57.6697 25.4192 57.6697 26.2711C57.6697 27.1231 58.3617 27.8137 59.2153 27.8137Z" stroke="#3BB515" stroke-width="0.5"/>
<path d="M31.2007 3.9397C32.268 3.9397 33.1333 3.07613 33.1333 2.01086C33.1333 0.945599 32.268 0.0820312 31.2007 0.0820312C30.1333 0.0820312 29.2681 0.945599 29.2681 2.01086C29.2681 3.07613 30.1333 3.9397 31.2007 3.9397Z" fill="#3BB515"/>
<path d="M36.6876 6.28544C37.2513 6.28544 37.7083 5.82938 37.7083 5.2668C37.7083 4.70423 37.2513 4.24817 36.6876 4.24817C36.1239 4.24817 35.667 4.70423 35.667 5.2668C35.667 5.82938 36.1239 6.28544 36.6876 6.28544Z" fill="#3BB515"/>
<path d="M14.1928 21.7923C15.0595 21.7923 15.7622 21.091 15.7622 20.2259C15.7622 19.3608 15.0595 18.6595 14.1928 18.6595C13.326 18.6595 12.6233 19.3608 12.6233 20.2259C12.6233 21.091 13.326 21.7923 14.1928 21.7923Z" stroke="#3BB515" stroke-width="0.5"/>
<path d="M60.0693 42.3106C61.0345 42.3106 61.8169 41.5297 61.8169 40.5664C61.8169 39.6032 61.0345 38.8223 60.0693 38.8223C59.1042 38.8223 58.3218 39.6032 58.3218 40.5664C58.3218 41.5297 59.1042 42.3106 60.0693 42.3106Z" fill="#3BB515"/>
<path d="M18.301 50.1189C19.2662 50.1189 20.0486 49.338 20.0486 48.3748C20.0486 47.4115 19.2662 46.6306 18.301 46.6306C17.3359 46.6306 16.5535 47.4115 16.5535 48.3748C16.5535 49.338 17.3359 50.1189 18.301 50.1189Z" fill="#3BB515"/>
<path d="M37.0441 53.0813C36.5251 53.0813 36.1045 52.6615 36.1045 52.1436C36.1045 51.6257 36.5251 51.2058 37.0441 51.2058C37.563 51.2058 37.9836 51.6257 37.9836 52.1436C37.9836 52.6615 37.563 53.0813 37.0441 53.0813Z" fill="#3BB515"/>
</g>
<defs>
<filter id="filter0_d_23712_2213" x="17.3938" y="10.3519" width="39.8206" height="39.7593" filterUnits="userSpaceOnUse" color-interpolation-filters="sRGB">
<feFlood flood-opacity="0" result="BackgroundImageFix"/>
<feColorMatrix in="SourceAlpha" type="matrix" values="0 0 0 0 0 0 0 0 0 0 0 0 0 0 0 0 0 0 127 0" result="hardAlpha"/>
<feOffset dy="3"/>
<feGaussianBlur stdDeviation="2"/>
<feColorMatrix type="matrix" values="0 0 0 0 0 0 0 0 0 0 0 0 0 0 0 0 0 0 0.12 0"/>
<feBlend mode="normal" in2="BackgroundImageFix" result="effect1_dropShadow_23712_2213"/>
<feBlend mode="normal" in="SourceGraphic" in2="effect1_dropShadow_23712_2213" result="shape"/>
</filter>
<clipPath id="clip0_23712_2213">
<rect width="64" height="56" fill="white"/>
</clipPath>
</defs>
</svg>
